<svg xmlns="http://www.w3.org/2000/svg" viewBox="0 0 280 72" role="img" aria-labelledby="logoTitle">
  <title id="logoTitle">SM Empreiteira de Obras</title>
  <g transform="translate(0, 6)">
    <path fill="none" stroke="#004182" stroke-width="1.2" d="M38 42V18M46 42V14M54 42V18M38 22h16M38 30h16M38 38h16"/>
    <rect x="44" y="22" width="28" height="26" rx="1" fill="#F5A623"/>
    <rect x="48" y="26" width="5" height="5" fill="#fff"/>
    <rect x="56" y="26" width="5" height="5" fill="#fff"/>
    <rect x="64" y="26" width="5" height="5" fill="#fff"/>
    <rect x="48" y="34" width="5" height="5" fill="#fff"/>
    <rect x="56" y="34" width="5" height="5" fill="#fff"/>
    <rect x="64" y="34" width="5" height="5" fill="#fff"/>
    <path fill="#004182" d="M28 22 L58 6 L86 22 H78 L58 12 L38 22 Z"/>
    <rect x="30" y="10" width="6" height="10" rx="0.5" fill="#004182"/>
    <path fill="none" stroke="#004182" stroke-width="2.2" stroke-linecap="round" d="M32 24 Q58 34 88 20"/>
  </g>
  <text x="96" y="38" font-family="system-ui, Segoe UI, Arial Black, sans-serif" font-weight="800" font-size="28" letter-spacing="-0.06em" fill="#F5A623">SM</text>
  <text x="96" y="54" font-family="system-ui, Segoe UI, Arial, sans-serif" font-weight="700" font-size="8.5" letter-spacing="0.14em" fill="#004182">EMPREITEIRA</text>
  <text x="96" y="64" font-family="system-ui, Segoe UI, Arial, sans-serif" font-weight="500" font-size="8.5" letter-spacing="0.14em" fill="#004182">DE OBRAS</text>
</svg>
